M48
; DRILL file {KiCad 9.0.6} date 2026-01-07T00:00:13-0600
; FORMAT={-:-/ absolute / inch / decimal}
; #@! TF.CreationDate,2026-01-07T00:00:13-06:00
; #@! TF.GenerationSoftware,Kicad,Pcbnew,9.0.6
; #@! TF.FileFunction,Plated,1,2,PTH
FMAT,2
INCH
; #@! TA.AperFunction,Plated,PTH,ViaDrill
T1C0.0118
; #@! TA.AperFunction,Plated,PTH,ComponentDrill
T2C0.0236
; #@! TA.AperFunction,Plated,PTH,ComponentDrill
T3C0.0394
; #@! TA.AperFunction,Plated,PTH,ComponentDrill
T4C0.0400
; #@! TA.AperFunction,Plated,PTH,ComponentDrill
T5C0.0472
; #@! TA.AperFunction,Plated,PTH,ComponentDrill
T6C0.0630
; #@! TA.AperFunction,Plated,PTH,ComponentDrill
T7C0.1260
%
G90
G05
T1
X4.3346Y-3.878
X4.3425Y-4.3976
X4.3622Y-4.1417
X4.3661Y-3.063
X4.3661Y-5.2953
X4.3661Y-5.4685
X4.3701Y-3.8543
X4.3937Y-4.0984
X4.4409Y-4.378
X4.4488Y-3.8543
X4.4882Y-3.4488
X4.4961Y-5.2323
X4.4961Y-5.5394
X4.5039Y-3.8661
X4.5193Y-3.8146
X4.5315Y-3.4193
X4.5394Y-4.3976
X4.5433Y-3.9134
X4.5472Y-3.1063
X4.5472Y-3.1575
X4.5472Y-4.6457
X4.5689Y-3.9803
X4.5748Y-3.5315
X4.5886Y-3.2657
X4.5906Y-4.2047
X4.5984Y-3.626
X4.6024Y-2.8386
X4.6024Y-3.9764
X4.6142Y-4.1339
X4.622Y-3.2953
X4.622Y-4.2874
X4.626Y-5.2953
X4.626Y-5.4685
X4.6299Y-4.7677
X4.6457Y-4.5945
X4.6457Y-4.6575
X4.6535Y-3.8268
X4.6654Y-4.7244
X4.685Y-3.9291
X4.685Y-3.9941
X4.689Y-4.6575
X4.6969Y-4.2559
X4.6969Y-4.7323
X4.7008Y-4.1673
X4.7008Y-4.626
X4.7126Y-4.3031
X4.7126Y-4.3504
X4.7205Y-4.874
X4.7244Y-3.2953
X4.7244Y-4.1339
X4.7283Y-4.6929
X4.7323Y-4.6181
X4.748Y-4.1673
X4.752Y-4.5
X4.7638Y-4.6535
X4.7677Y-3.9291
X4.7677Y-4.7244
X4.7717Y-4.2323
X4.7717Y-4.2795
X4.7953Y-4.0
X4.7972Y-3.874
X4.7992Y-2.9567
X4.7992Y-3.0039
X4.7992Y-3.1457
X4.7992Y-4.7559
X4.8031Y-4.9449
X4.8071Y-5.122
X4.8169Y-3.2933
X4.8346Y-4.6575
X4.8346Y-4.7234
X4.8446Y-4.2271
X4.8465Y-4.0984
X4.8701Y-3.1614
X4.8819Y-3.3543
X4.8819Y-3.689
X4.8819Y-3.9193
X4.8819Y-4.0079
X4.8858Y-3.5472
X4.8878Y-4.6575
X4.8878Y-4.7244
X4.8898Y-4.3543
X4.8898Y-4.5591
X4.8898Y-4.8976
X4.8898Y-5.0551
X4.9055Y-5.1378
X4.9252Y-3.2087
X4.9252Y-3.2598
X4.9291Y-5.1693
X4.9311Y-3.876
X4.9528Y-4.3543
X4.9528Y-4.5591
X4.9528Y-4.6662
X4.9528Y-4.7585
X4.9528Y-4.9921
X4.9528Y-5.0551
X4.9528Y-5.2205
X4.9567Y-4.2756
X4.9783Y-4.689
X4.9803Y-3.626
X4.9882Y-4.3031
X4.9882Y-4.7953
X4.9921Y-4.1378
X5.0Y-2.9567
X5.0Y-3.0197
X5.0079Y-3.9685
X5.0118Y-4.7244
X5.0197Y-4.5709
X5.0236Y-4.8701
X5.0276Y-3.7953
X5.0276Y-4.8346
X5.0394Y-4.189
X5.0433Y-3.874
X5.0433Y-4.4173
X5.0453Y-4.7579
X5.0472Y-3.6772
X5.0472Y-4.0079
X5.0512Y-3.1339
X5.0512Y-3.185
X5.0591Y-3.9213
X5.0689Y-4.8937
X5.0709Y-4.0315
X5.0787Y-4.2283
X5.0787Y-4.2776
X5.0787Y-4.3504
X5.0827Y-4.7953
X5.0866Y-3.6535
X5.0945Y-3.0906
X5.099Y-3.8749
X5.1142Y-3.9764
X5.1181Y-3.0512
X5.1214Y-4.8346
X5.122Y-4.1417
X5.126Y-4.1063
X5.1339Y-3.6929
X5.1347Y-4.8937
X5.1378Y-4.189
X5.1417Y-3.874
X5.1545Y-3.934
X5.1654Y-3.8504
X5.1772Y-3.5984
X5.185Y-3.7244
X5.1929Y-4.189
X5.2047Y-3.8504
X5.2126Y-4.8937
X5.2126Y-4.9685
X5.2126Y-5.0157
X5.2165Y-3.1181
X5.2323Y-3.9882
X5.2402Y-3.8583
X5.248Y-5.1457
X5.248Y-5.2205
X5.2484Y-4.3524
X5.2539Y-4.2776
X5.2559Y-4.1181
X5.2559Y-4.2283
X5.2717Y-3.7244
X5.2795Y-3.9882
X5.2795Y-4.7008
X5.2874Y-4.4252
X5.3031Y-3.0472
X5.3031Y-4.1654
X5.3071Y-3.2087
X5.315Y-4.2717
X5.3386Y-4.8937
X5.3386Y-5.0709
X5.3504Y-3.1732
X5.3504Y-4.3071
X5.3543Y-3.9173
X5.3661Y-3.1142
X5.3701Y-4.6496
X5.3819Y-3.2047
X5.3996Y-4.6752
X5.4016Y-4.1181
X5.4016Y-4.1969
X5.4016Y-4.2638
X5.4035Y-4.8917
X5.4213Y-5.1142
X5.4252Y-5.2638
X5.4449Y-3.1811
X5.4449Y-3.2717
X5.4488Y-3.6654
X5.4488Y-5.0433
X5.4606Y-3.5236
X5.4606Y-3.8583
X5.4803Y-4.4685
X5.5106Y-4.6835
X5.5118Y-4.5394
X5.5156Y-4.7672
X5.5177Y-4.8819
X5.5197Y-3.3268
X5.5197Y-3.5236
X5.5236Y-3.0472
X5.5236Y-3.1457
X5.5295Y-3.2067
X5.5315Y-3.2484
X5.5354Y-4.2795
X5.5354Y-4.3425
X5.5354Y-5.2323
X5.5394Y-4.1969
X5.5591Y-5.122
X5.5669Y-4.5354
X5.5669Y-4.8819
X5.5709Y-4.9685
X5.5787Y-4.4213
X5.5821Y-4.7468
X5.5945Y-3.1142
X5.5984Y-3.2795
X5.5984Y-3.5591
X5.6063Y-3.4173
X5.6063Y-3.4921
X5.6142Y-3.7205
X5.622Y-5.1457
X5.626Y-4.5079
X5.6358Y-4.8819
X5.6358Y-5.1161
X5.6594Y-5.0236
X5.6632Y-4.5881
X5.6654Y-4.1181
X5.6654Y-4.8189
X5.685Y-3.3346
X5.685Y-4.2795
X5.685Y-4.3425
X5.6948Y-4.1988
X5.7283Y-3.7244
X5.7283Y-3.8622
X5.7283Y-4.4055
X5.7362Y-4.1181
X5.7559Y-5.374
X5.7559Y-5.4252
X5.7598Y-3.0472
X5.7598Y-3.1378
X5.7598Y-5.0236
X5.7717Y-5.1654
X5.7795Y-3.2795
X5.7835Y-3.7047
X5.7913Y-2.7913
X5.7913Y-4.3425
X5.7913Y-4.622
X5.8177Y-4.4336
X5.8228Y-5.0709
X5.8346Y-4.0197
X5.8386Y-3.3346
X5.8386Y-4.1181
X5.8386Y-4.1654
X5.8425Y-3.689
X5.8504Y-4.2795
X5.8572Y-3.6233
X5.8583Y-3.4843
X5.8622Y-3.9685
X5.872Y-4.9114
X5.8815Y-4.3697
X5.8898Y-3.2677
X5.8937Y-3.1575
X5.9094Y-5.1772
X5.9134Y-3.4843
X5.9142Y-3.6234
X5.9213Y-5.311
X5.9291Y-2.9409
X5.9311Y-4.9626
X5.9331Y-4.622
X5.9488Y-5.1142
X5.9567Y-3.4045
X5.959Y-3.3363
X5.9685Y-5.1654
X5.9705Y-4.813
X5.9764Y-4.1102
X5.9843Y-3.9213
X5.9843Y-5.311
X5.9882Y-4.0394
X5.9921Y-4.1654
X6.0Y-3.8583
X6.0039Y-3.2677
X6.0177Y-4.874
X6.0197Y-3.6299
X6.0236Y-2.9409
X6.0433Y-4.5512
X6.0433Y-4.7756
X6.0472Y-4.811
X6.0512Y-4.2323
X6.0512Y-4.3583
X6.063Y-3.3701
X6.1181Y-5.1142
X6.1187Y-3.9061
X6.1535Y-3.1693
X6.1535Y-5.1496
X6.1688Y-4.8433
X6.1693Y-4.0276
X6.1693Y-4.9646
X6.1693Y-5.063
X6.1722Y-4.2057
X6.1732Y-4.7559
X6.1732Y-4.8031
X6.1761Y-4.2372
X6.1929Y-3.8858
X6.1929Y-3.9331
X6.1929Y-3.9843
X6.1949Y-4.3799
X6.1949Y-4.5433
X6.2047Y-3.122
X6.2087Y-4.0197
X6.2165Y-3.5984
X6.2165Y-4.1181
X6.2165Y-4.9646
X6.2165Y-5.063
X6.2201Y-4.3185
X6.2201Y-4.7008
X6.2244Y-4.2283
X6.2283Y-4.0472
X6.2461Y-4.3799
X6.248Y-4.5433
X6.2795Y-3.8858
X6.2913Y-5.5236
X6.3366Y-4.7106
X6.3583Y-4.3189
X6.3661Y-3.378
X6.3661Y-3.4803
X6.3661Y-3.5984
X6.3661Y-3.8858
X6.3661Y-3.9331
X6.3661Y-3.9843
X6.3937Y-3.8228
X6.3937Y-4.5472
X6.3957Y-3.315
X6.3976Y-2.9843
X6.3976Y-3.1339
X6.3976Y-3.7559
X6.3976Y-3.7913
X6.4173Y-3.8451
X6.4173Y-4.3898
X6.4173Y-4.6299
X6.4606Y-2.9843
X6.4606Y-3.1339
X6.4606Y-3.378
X6.4606Y-3.4803
X6.4606Y-3.5984
X6.4646Y-3.7835
X6.4803Y-4.3898
X6.4803Y-4.5472
X6.4921Y-3.8543
X6.514Y-4.015
X6.5197Y-4.0669
X6.5197Y-4.1969
X6.5197Y-4.252
X6.5197Y-4.315
X6.5197Y-4.5472
X6.5197Y-4.5906
X6.5199Y-4.1262
X6.5394Y-3.6319
X6.5945Y-4.2756
X6.5945Y-4.4331
X6.6004Y-3.6929
X6.6417Y-4.5039
X6.6575Y-3.7638
X6.6575Y-4.0197
X6.6575Y-4.2756
X6.6811Y-3.4508
X6.6811Y-3.6063
X6.7047Y-3.0709
X6.7047Y-3.2283
X6.7047Y-3.3543
X6.7402Y-2.9134
X6.7559Y-3.0709
X6.7559Y-3.2283
X6.7559Y-3.3543
X6.7992Y-2.9331
X6.8031Y-3.2953
X6.811Y-3.2165
X6.8268Y-4.0197
X6.8622Y-3.378
X6.8858Y-3.2165
X6.9094Y-3.9252
X6.9291Y-3.6417
X6.9528Y-3.3465
X6.9843Y-3.0787
X6.9843Y-3.4445
X6.9882Y-3.1496
X7.0157Y-3.4094
X7.0197Y-3.2067
X7.0236Y-3.248
X7.0276Y-3.3386
X7.0709Y-3.6417
X7.0787Y-3.0669
X7.0827Y-2.8346
X7.0827Y-2.9055
X7.0827Y-2.9921
X7.2362Y-2.9921
X7.2362Y-3.0551
X7.2362Y-3.6339
X7.2402Y-3.4646
X7.248Y-3.5512
X7.2795Y-3.4724
X7.2953Y-3.2205
X7.311Y-3.2953
X7.311Y-3.4331
X7.3898Y-5.5157
X7.4213Y-2.811
X7.4528Y-3.311
X7.6378Y-5.2717
X7.6496Y-3.0748
X7.6575Y-3.5945
T3
X5.9094Y-3.9945
X5.9094Y-4.0945
X5.9094Y-4.1945
X5.9094Y-4.2945
T4
X5.2047Y-3.9396
X5.2047Y-4.0396
X5.3047Y-3.9396
X5.3047Y-4.0396
X5.4047Y-3.9396
X5.4047Y-4.0396
X5.5047Y-3.9396
X5.5047Y-4.0396
X5.6047Y-3.9396
X5.6047Y-4.0396
T5
X4.626Y-3.3819
X4.626Y-3.4803
X4.626Y-3.5787
X4.626Y-3.6772
X4.626Y-3.7756
X4.626Y-3.874
X4.7244Y-3.3819
X4.7244Y-3.4803
X4.7244Y-3.5787
X4.7244Y-3.6772
X4.7244Y-3.7756
X4.7244Y-3.874
X5.6902Y-2.8736
X5.7886Y-2.8736
X5.887Y-2.8736
X5.9854Y-2.8736
X6.2303Y-2.874
X6.3287Y-2.874
X6.4272Y-2.874
X7.1654Y-2.874
X7.2638Y-2.874
T6
X5.5939Y-5.4193
X6.8173Y-2.8547
X7.4665Y-3.1654
T7
X4.4843Y-2.9528
X4.498Y-5.3858
X6.1748Y-3.4602
X6.1748Y-5.4091
X7.5138Y-2.9528
X7.5331Y-3.4602
X7.5331Y-5.4091
T2
G00X4.4169Y-4.501
M15
G01X4.3854Y-4.501
M16
G05
G00X4.4169Y-4.8411
M15
G01X4.3854Y-4.8411
M16
G05
G00X4.5874Y-4.501
M15
G01X4.5441Y-4.501
M16
G05
G00X4.5874Y-4.8411
M15
G01X4.5441Y-4.8411
M16
G05
M30
