%TF.GenerationSoftware,KiCad,Pcbnew,9.0.6*%
%TF.CreationDate,2026-01-07T00:00:13-06:00*%
%TF.ProjectId,VehicleControlUnit,56656869-636c-4654-936f-6e74726f6c55,rev?*%
%TF.SameCoordinates,Original*%
%TF.FileFunction,Soldermask,Top*%
%TF.FilePolarity,Negative*%
%FSLAX46Y46*%
G04 Gerber Fmt 4.6, Leading zero omitted, Abs format (unit mm)*
G04 Created by KiCad (PCBNEW 9.0.6) date 2026-01-07 00:00:13*
%MOMM*%
%LPD*%
G01*
G04 APERTURE LIST*
G04 Aperture macros list*
%AMRoundRect*
0 Rectangle with rounded corners*
0 $1 Rounding radius*
0 $2 $3 $4 $5 $6 $7 $8 $9 X,Y pos of 4 corners*
0 Add a 4 corners polygon primitive as box body*
4,1,4,$2,$3,$4,$5,$6,$7,$8,$9,$2,$3,0*
0 Add four circle primitives for the rounded corners*
1,1,$1+$1,$2,$3*
1,1,$1+$1,$4,$5*
1,1,$1+$1,$6,$7*
1,1,$1+$1,$8,$9*
0 Add four rect primitives between the rounded corners*
20,1,$1+$1,$2,$3,$4,$5,0*
20,1,$1+$1,$4,$5,$6,$7,0*
20,1,$1+$1,$6,$7,$8,$9,0*
20,1,$1+$1,$8,$9,$2,$3,0*%
%AMFreePoly0*
4,1,6,0.725000,-0.725000,-0.725000,-0.725000,-0.725000,0.125000,-0.125000,0.725000,0.725000,0.725000,0.725000,-0.725000,0.725000,-0.725000,$1*%
%AMFreePoly1*
4,1,22,0.945671,0.830970,1.026777,0.776777,1.080970,0.695671,1.100000,0.600000,1.100000,-0.600000,1.080970,-0.695671,1.026777,-0.776777,0.945671,-0.830970,0.850000,-0.850000,-0.450000,-0.850000,-0.545671,-0.830970,-0.626777,-0.776777,-1.026777,-0.376777,-1.080970,-0.295671,-1.100000,-0.200000,-1.100000,0.600000,-1.080970,0.695671,-1.026777,0.776777,-0.945671,0.830970,-0.850000,0.850000,
0.850000,0.850000,0.945671,0.830970,0.945671,0.830970,$1*%
%AMFreePoly2*
4,1,22,0.945671,0.830970,1.026777,0.776777,1.080970,0.695671,1.100000,0.600000,1.100000,-0.600000,1.080970,-0.695671,1.026777,-0.776777,0.945671,-0.830970,0.850000,-0.850000,-0.596447,-0.850000,-0.692118,-0.830970,-0.773224,-0.776777,-1.026777,-0.523224,-1.080970,-0.442118,-1.100000,-0.346447,-1.100000,0.600000,-1.080970,0.695671,-1.026777,0.776777,-0.945671,0.830970,-0.850000,0.850000,
0.850000,0.850000,0.945671,0.830970,0.945671,0.830970,$1*%
G04 Aperture macros list end*
%ADD10C,0.000000*%
%ADD11RoundRect,0.375000X0.375000X-0.625000X0.375000X0.625000X-0.375000X0.625000X-0.375000X-0.625000X0*%
%ADD12RoundRect,0.500000X1.400000X-0.500000X1.400000X0.500000X-1.400000X0.500000X-1.400000X-0.500000X0*%
%ADD13RoundRect,0.237500X0.237500X-0.250000X0.237500X0.250000X-0.237500X0.250000X-0.237500X-0.250000X0*%
%ADD14RoundRect,0.237500X0.287500X0.237500X-0.287500X0.237500X-0.287500X-0.237500X0.287500X-0.237500X0*%
%ADD15RoundRect,0.237500X-0.237500X0.250000X-0.237500X-0.250000X0.237500X-0.250000X0.237500X0.250000X0*%
%ADD16R,1.800000X0.550000*%
%ADD17C,3.600000*%
%ADD18C,6.400000*%
%ADD19C,6.200000*%
%ADD20RoundRect,0.237500X-0.237500X0.287500X-0.237500X-0.287500X0.237500X-0.287500X0.237500X0.287500X0*%
%ADD21RoundRect,0.237500X0.237500X-0.300000X0.237500X0.300000X-0.237500X0.300000X-0.237500X-0.300000X0*%
%ADD22RoundRect,0.237500X0.250000X0.237500X-0.250000X0.237500X-0.250000X-0.237500X0.250000X-0.237500X0*%
%ADD23C,2.800000*%
%ADD24RoundRect,0.237500X-0.287500X-0.237500X0.287500X-0.237500X0.287500X0.237500X-0.287500X0.237500X0*%
%ADD25RoundRect,0.150000X-0.425000X0.150000X-0.425000X-0.150000X0.425000X-0.150000X0.425000X0.150000X0*%
%ADD26RoundRect,0.075000X-0.500000X0.075000X-0.500000X-0.075000X0.500000X-0.075000X0.500000X0.075000X0*%
%ADD27O,2.100000X1.000000*%
%ADD28O,1.800000X1.000000*%
%ADD29RoundRect,0.237500X-0.250000X-0.237500X0.250000X-0.237500X0.250000X0.237500X-0.250000X0.237500X0*%
%ADD30R,1.970000X1.670000*%
%ADD31R,1.000000X0.750000*%
%ADD32C,1.524000*%
%ADD33RoundRect,0.102000X-0.500000X-0.800000X0.500000X-0.800000X0.500000X0.800000X-0.500000X0.800000X0*%
%ADD34RoundRect,0.250000X0.600000X0.600000X-0.600000X0.600000X-0.600000X-0.600000X0.600000X-0.600000X0*%
%ADD35C,1.700000*%
%ADD36R,1.890000X1.140000*%
%ADD37RoundRect,0.237500X-0.300000X-0.237500X0.300000X-0.237500X0.300000X0.237500X-0.300000X0.237500X0*%
%ADD38R,0.800000X0.400000*%
%ADD39R,0.400000X0.800000*%
%ADD40FreePoly0,180.000000*%
%ADD41R,1.450000X1.450000*%
%ADD42R,0.700000X0.700000*%
%ADD43RoundRect,0.250000X-0.337500X-0.475000X0.337500X-0.475000X0.337500X0.475000X-0.337500X0.475000X0*%
%ADD44RoundRect,0.065000X0.465000X0.195000X-0.465000X0.195000X-0.465000X-0.195000X0.465000X-0.195000X0*%
%ADD45RoundRect,0.040000X0.390000X0.120000X-0.390000X0.120000X-0.390000X-0.120000X0.390000X-0.120000X0*%
%ADD46RoundRect,0.065500X0.466500X0.196500X-0.466500X0.196500X-0.466500X-0.196500X0.466500X-0.196500X0*%
%ADD47R,1.650000X2.400000*%
%ADD48RoundRect,0.150000X0.150000X-0.587500X0.150000X0.587500X-0.150000X0.587500X-0.150000X-0.587500X0*%
%ADD49RoundRect,0.250000X0.600000X-0.850000X0.600000X0.850000X-0.600000X0.850000X-0.600000X-0.850000X0*%
%ADD50O,1.700000X2.200000*%
%ADD51FreePoly1,90.000000*%
%ADD52R,0.480000X0.750000*%
%ADD53R,2.720000X4.560000*%
%ADD54R,0.910000X5.560000*%
%ADD55R,0.420000X4.560000*%
%ADD56RoundRect,0.250000X0.475000X-0.337500X0.475000X0.337500X-0.475000X0.337500X-0.475000X-0.337500X0*%
%ADD57R,1.200000X0.450000*%
%ADD58RoundRect,0.237500X-0.237500X0.300000X-0.237500X-0.300000X0.237500X-0.300000X0.237500X0.300000X0*%
%ADD59RoundRect,0.237500X0.237500X-0.287500X0.237500X0.287500X-0.237500X0.287500X-0.237500X-0.287500X0*%
%ADD60RoundRect,0.225000X0.225000X0.375000X-0.225000X0.375000X-0.225000X-0.375000X0.225000X-0.375000X0*%
%ADD61RoundRect,0.250000X-0.475000X0.337500X-0.475000X-0.337500X0.475000X-0.337500X0.475000X0.337500X0*%
%ADD62RoundRect,0.150000X-0.150000X0.587500X-0.150000X-0.587500X0.150000X-0.587500X0.150000X0.587500X0*%
%ADD63RoundRect,0.250000X-0.300000X-0.300000X0.300000X-0.300000X0.300000X0.300000X-0.300000X0.300000X0*%
%ADD64RoundRect,0.175000X-0.325000X0.175000X-0.325000X-0.175000X0.325000X-0.175000X0.325000X0.175000X0*%
%ADD65RoundRect,0.150000X-0.150000X0.200000X-0.150000X-0.200000X0.150000X-0.200000X0.150000X0.200000X0*%
%ADD66FreePoly2,90.000000*%
%ADD67RoundRect,0.150000X-0.587500X-0.150000X0.587500X-0.150000X0.587500X0.150000X-0.587500X0.150000X0*%
%ADD68R,0.750000X1.000000*%
%ADD69R,0.750000X0.480000*%
%ADD70R,4.560000X2.720000*%
%ADD71R,5.560000X0.910000*%
%ADD72R,4.560000X0.420000*%
%ADD73R,1.700000X1.700000*%
G04 APERTURE END LIST*
D10*
%TO.C,LOGO2*%
G36*
X168103608Y-137274434D02*
G01*
X168128807Y-138408362D01*
X169149342Y-138422005D01*
X170169878Y-138435648D01*
X170169878Y-138686588D01*
X170169878Y-138937529D01*
X168833565Y-138937529D01*
X167497252Y-138937529D01*
X167510648Y-137539017D01*
X167524045Y-136140505D01*
X167801227Y-136140505D01*
X168078410Y-136140505D01*
X168103608Y-137274434D01*
G37*
G36*
X180968687Y-136787727D02*
G01*
X180968687Y-137014513D01*
X180187536Y-137014513D01*
X179406385Y-137014513D01*
X179406385Y-137266497D01*
X179406385Y-137518481D01*
X180187536Y-137518481D01*
X180968687Y-137518481D01*
X180968687Y-138224037D01*
X180968687Y-138929592D01*
X179960750Y-138929592D01*
X178952814Y-138929592D01*
X178952814Y-138702807D01*
X178952814Y-138476021D01*
X179733965Y-138476021D01*
X180515115Y-138476021D01*
X180515115Y-138224037D01*
X180515115Y-137972053D01*
X179733965Y-137972053D01*
X178952814Y-137972053D01*
X178952814Y-137266497D01*
X178952814Y-136560942D01*
X179960750Y-136560942D01*
X180968687Y-136560942D01*
X180968687Y-136787727D01*
G37*
G36*
X173979642Y-136124399D02*
G01*
X174176426Y-136140505D01*
X174189822Y-137539017D01*
X174203218Y-138937529D01*
X173876492Y-138937529D01*
X173549766Y-138937529D01*
X173535517Y-138370565D01*
X173521267Y-137803600D01*
X172426796Y-137790023D01*
X171332324Y-137776445D01*
X171318065Y-138344388D01*
X171303807Y-138912330D01*
X170988025Y-138927355D01*
X170672243Y-138942380D01*
X170685644Y-137541443D01*
X170699045Y-136140505D01*
X170955505Y-136125554D01*
X171154604Y-136130390D01*
X171263177Y-136172949D01*
X171268542Y-136178773D01*
X171294089Y-136256102D01*
X171316865Y-136408772D01*
X171333690Y-136611330D01*
X171339661Y-136748090D01*
X171354203Y-137249235D01*
X172437735Y-137249235D01*
X173521267Y-137249235D01*
X173535566Y-136708003D01*
X173544875Y-136450084D01*
X173564585Y-136277308D01*
X173606595Y-136174038D01*
X173682804Y-136124634D01*
X173805112Y-136113459D01*
X173979642Y-136124399D01*
G37*
G36*
X176209203Y-136120409D02*
G01*
X176532331Y-136124253D01*
X177000539Y-136132722D01*
X177378469Y-136145398D01*
X177676637Y-136166385D01*
X177905558Y-136199786D01*
X178075748Y-136249707D01*
X178197722Y-136320250D01*
X178281996Y-136415521D01*
X178339086Y-136539623D01*
X178379507Y-136696661D01*
X178408166Y-136856385D01*
X178418595Y-137058843D01*
X178395002Y-137281334D01*
X178344509Y-137489877D01*
X178274236Y-137650495D01*
X178230185Y-137705689D01*
X178165944Y-137771605D01*
X178166111Y-137823911D01*
X178233102Y-137904101D01*
X178242313Y-137913914D01*
X178298377Y-137988880D01*
X178335044Y-138086304D01*
X178358130Y-138231163D01*
X178373448Y-138448434D01*
X178375252Y-138484958D01*
X178396890Y-138937529D01*
X178063146Y-138937529D01*
X177729402Y-138937529D01*
X177729402Y-138641944D01*
X177717156Y-138435242D01*
X177674712Y-138291880D01*
X177624950Y-138213571D01*
X177520499Y-138080783D01*
X176566617Y-138080783D01*
X175612735Y-138080783D01*
X175612735Y-138509156D01*
X175612735Y-138937529D01*
X175285156Y-138937529D01*
X174957576Y-138937529D01*
X174957576Y-137552576D01*
X174957576Y-137089645D01*
X174957576Y-136669672D01*
X175612735Y-136669672D01*
X175612735Y-137089645D01*
X175617002Y-137287182D01*
X175628356Y-137444903D01*
X175644630Y-137536541D01*
X175650533Y-137547628D01*
X175710633Y-137558728D01*
X175855058Y-137566733D01*
X176067378Y-137571290D01*
X176331159Y-137572048D01*
X176629972Y-137568655D01*
X176631533Y-137568627D01*
X176968296Y-137561536D01*
X177218779Y-137553139D01*
X177397495Y-137541933D01*
X177518955Y-137526414D01*
X177597673Y-137505080D01*
X177648163Y-137476426D01*
X177664667Y-137461622D01*
X177730009Y-137343491D01*
X177754221Y-137152026D01*
X177754600Y-137116991D01*
X177744605Y-136947658D01*
X177706224Y-136840725D01*
X177635624Y-136766013D01*
X177585534Y-136732075D01*
X177521237Y-136707130D01*
X177427628Y-136689816D01*
X177289602Y-136678776D01*
X177092054Y-136672652D01*
X176819878Y-136670083D01*
X176564692Y-136669672D01*
X175612735Y-136669672D01*
X174957576Y-136669672D01*
X174957576Y-136167624D01*
X175083422Y-136136038D01*
X175166578Y-136128255D01*
X175335619Y-136122679D01*
X175575661Y-136119432D01*
X175871818Y-136118635D01*
X176209203Y-136120409D01*
G37*
%TD*%
D11*
%TO.C,U3*%
X128940000Y-114225000D03*
X131240000Y-114225000D03*
D12*
X131240000Y-107925000D03*
D11*
X133540000Y-114225000D03*
%TD*%
D13*
%TO.C,R44*%
X153800000Y-95112500D03*
X153800000Y-93287500D03*
%TD*%
D14*
%TO.C,LV20*%
X151250000Y-84000000D03*
X149500000Y-84000000D03*
%TD*%
D15*
%TO.C,R7*%
X137600000Y-125287500D03*
X137600000Y-127112500D03*
%TD*%
D16*
%TO.C,U1*%
X159590001Y-109326010D03*
X155290060Y-109326011D03*
X159590060Y-108526011D03*
X155289999Y-108526011D03*
X159590060Y-107726011D03*
X155289999Y-107726010D03*
X159590060Y-106926011D03*
X155289999Y-106926012D03*
X159590060Y-106126011D03*
X155289999Y-106126011D03*
X159590060Y-105326011D03*
X155289999Y-105326013D03*
X159590060Y-104526011D03*
X155289999Y-104526012D03*
X159590060Y-103726011D03*
X155289999Y-103726011D03*
X159590001Y-102926012D03*
X155289999Y-102926012D03*
X159590001Y-102126012D03*
X155289999Y-102126012D03*
X159590001Y-101326013D03*
X155289999Y-101326013D03*
X159590001Y-100526012D03*
X155289999Y-100526012D03*
X159540001Y-125079988D03*
X155239999Y-125079988D03*
X159540001Y-124279989D03*
X155239999Y-124279989D03*
X159540001Y-123479988D03*
X155239999Y-123479988D03*
X159540001Y-122679990D03*
X155239999Y-122679990D03*
X159540001Y-121879989D03*
X155239999Y-121879989D03*
X159540001Y-121079991D03*
X155239999Y-121079991D03*
X159540001Y-120279990D03*
X155239999Y-120279990D03*
X159540001Y-119479989D03*
X155239999Y-119479989D03*
X159540001Y-118679990D03*
X155239999Y-118679990D03*
X159540001Y-117879990D03*
X155239999Y-117879990D03*
X159540001Y-117079991D03*
X155239999Y-117079991D03*
X159540001Y-116279990D03*
X155239999Y-116279990D03*
D17*
X156840000Y-137390000D03*
D18*
X156840000Y-137390000D03*
D17*
X156840000Y-87890000D03*
D19*
X156840000Y-87890000D03*
D17*
X191340000Y-87890000D03*
D19*
X191340000Y-87890000D03*
D17*
X191340000Y-137390000D03*
D19*
X191340000Y-137390000D03*
%TD*%
D20*
%TO.C,D6*%
X132100000Y-116625000D03*
X132100000Y-118375000D03*
%TD*%
D21*
%TO.C,C22*%
X147065000Y-107687500D03*
X147065000Y-105962500D03*
%TD*%
D22*
%TO.C,R37*%
X151612500Y-118300000D03*
X149787500Y-118300000D03*
%TD*%
D23*
%TO.C,24V_TP1*%
X173160000Y-72510000D03*
%TD*%
D14*
%TO.C,LV11*%
X147975000Y-116500000D03*
X146225000Y-116500000D03*
%TD*%
D24*
%TO.C,LV4*%
X115525000Y-130900000D03*
X117275000Y-130900000D03*
%TD*%
D14*
%TO.C,LV14*%
X141175000Y-92200000D03*
X139425000Y-92200000D03*
%TD*%
D25*
%TO.C,J6*%
X116545000Y-115445000D03*
X116545000Y-116245000D03*
D26*
X116545000Y-117395000D03*
X116545000Y-118395000D03*
X116545000Y-118895000D03*
X116545000Y-119895000D03*
D25*
X116545000Y-121045000D03*
X116545000Y-121845000D03*
X116545000Y-121845000D03*
X116545000Y-121045000D03*
D26*
X116545000Y-120395000D03*
X116545000Y-119395000D03*
X116545000Y-117895000D03*
X116545000Y-116895000D03*
D25*
X116545000Y-116245000D03*
X116545000Y-115445000D03*
D27*
X115970000Y-114325000D03*
X115970000Y-122965000D03*
D28*
X111790000Y-122965000D03*
X111790000Y-114325000D03*
%TD*%
D14*
%TO.C,LV13*%
X141175000Y-94000000D03*
X139425000Y-94000000D03*
%TD*%
D29*
%TO.C,R52*%
X162887500Y-110500000D03*
X164712500Y-110500000D03*
%TD*%
D14*
%TO.C,LV23*%
X141175000Y-79100000D03*
X139425000Y-79100000D03*
%TD*%
D29*
%TO.C,R23*%
X122187500Y-108100000D03*
X124012500Y-108100000D03*
%TD*%
%TO.C,R48*%
X162887500Y-107300000D03*
X164712500Y-107300000D03*
%TD*%
D22*
%TO.C,R17*%
X114312500Y-84400000D03*
X112487500Y-84400000D03*
%TD*%
D30*
%TO.C,D11*%
X178075000Y-76150000D03*
X174025000Y-76150000D03*
%TD*%
D13*
%TO.C,R45*%
X157000000Y-95112500D03*
X157000000Y-93287500D03*
%TD*%
D29*
%TO.C,R8*%
X124637500Y-123425000D03*
X126462500Y-123425000D03*
%TD*%
D14*
%TO.C,LV15*%
X141175000Y-82700000D03*
X139425000Y-82700000D03*
%TD*%
D31*
%TO.C,SW1*%
X145610000Y-132695000D03*
X150110000Y-132695000D03*
X145610000Y-130545000D03*
X150110000Y-130545000D03*
%TD*%
D32*
%TO.C,J2*%
X142360000Y-102607000D03*
X142360000Y-100067000D03*
X139820000Y-102607000D03*
X139820000Y-100067000D03*
X137280000Y-102607000D03*
X137280000Y-100067000D03*
X134740000Y-102607000D03*
X134740000Y-100067000D03*
X132200000Y-102607000D03*
X132200000Y-100067000D03*
%TD*%
D22*
%TO.C,R20*%
X120712500Y-129200000D03*
X118887500Y-129200000D03*
%TD*%
D14*
%TO.C,LV8*%
X147975000Y-120100000D03*
X146225000Y-120100000D03*
%TD*%
D22*
%TO.C,R39*%
X151612500Y-114700000D03*
X149787500Y-114700000D03*
%TD*%
D33*
%TO.C,SW2*%
X145220000Y-126990000D03*
X146970000Y-124690000D03*
X148720000Y-126990000D03*
%TD*%
D13*
%TO.C,R51*%
X145385000Y-107737500D03*
X145385000Y-105912500D03*
%TD*%
D14*
%TO.C,LV12*%
X147975000Y-114700000D03*
X146225000Y-114700000D03*
%TD*%
%TO.C,LVPWR1*%
X171775000Y-76800000D03*
X170025000Y-76800000D03*
%TD*%
%TO.C,LV17*%
X151250000Y-93000000D03*
X149500000Y-93000000D03*
%TD*%
D20*
%TO.C,D5*%
X130320000Y-116625000D03*
X130320000Y-118375000D03*
%TD*%
D14*
%TO.C,LV7*%
X141175000Y-88600000D03*
X139425000Y-88600000D03*
%TD*%
D23*
%TO.C,3V1*%
X142085000Y-137650000D03*
%TD*%
D13*
%TO.C,R50*%
X141625000Y-107662500D03*
X141625000Y-105837500D03*
%TD*%
D34*
%TO.C,J1*%
X120000000Y-98400000D03*
D35*
X120000000Y-95900000D03*
X120000000Y-93400000D03*
X120000000Y-90900000D03*
X120000000Y-88400000D03*
X120000000Y-85900000D03*
X117500000Y-98400000D03*
X117500000Y-95900000D03*
X117500000Y-93400000D03*
X117500000Y-90900000D03*
X117500000Y-88400000D03*
X117500000Y-85900000D03*
%TD*%
D36*
%TO.C,D10*%
X123950000Y-96450000D03*
X123950000Y-100650000D03*
%TD*%
D37*
%TO.C,C15*%
X182737500Y-79000000D03*
X184462500Y-79000000D03*
%TD*%
D22*
%TO.C,R28*%
X181012500Y-79000000D03*
X179187500Y-79000000D03*
%TD*%
D38*
%TO.C,U4*%
X135097336Y-134400000D03*
X135097336Y-133600000D03*
X135097336Y-132800000D03*
X135097336Y-132000000D03*
X135097336Y-131200000D03*
X135097336Y-130400000D03*
X135097336Y-129600000D03*
X135097336Y-128800000D03*
X135097336Y-128000000D03*
X135097336Y-127200000D03*
X135097336Y-126400000D03*
D39*
X133997336Y-125500000D03*
X133197336Y-125500000D03*
X132397336Y-125500000D03*
X131597336Y-125500000D03*
X130797336Y-125500000D03*
X129997336Y-125500000D03*
X129197336Y-125500000D03*
X128397336Y-125500000D03*
X127597336Y-125500000D03*
X126797336Y-125500000D03*
X125997336Y-125500000D03*
X125197336Y-125500000D03*
X124397336Y-125500000D03*
D38*
X123297336Y-126400000D03*
X123297336Y-127200000D03*
X123297336Y-128000000D03*
X123297336Y-128800000D03*
X123297336Y-129600000D03*
X123297336Y-130400000D03*
X123297336Y-131200000D03*
X123297336Y-132000000D03*
X123297336Y-132800000D03*
X123297336Y-133600000D03*
X123297336Y-134400000D03*
D39*
X124397336Y-135300000D03*
X125197336Y-135300000D03*
X125997336Y-135300000D03*
X126797336Y-135300000D03*
X127597336Y-135300000D03*
X128397336Y-135300000D03*
X129197336Y-135300000D03*
X129997336Y-135300000D03*
X130797336Y-135300000D03*
X131597336Y-135300000D03*
X132397336Y-135300000D03*
X133197336Y-135300000D03*
X133997336Y-135300000D03*
D40*
X131172336Y-132375000D03*
D41*
X131172336Y-130400000D03*
X131172336Y-128425000D03*
X129197336Y-132375000D03*
X129197336Y-130400000D03*
X129197336Y-128425000D03*
X127222336Y-132375000D03*
X127222336Y-130400000D03*
X127222336Y-128425000D03*
D42*
X123247336Y-135350000D03*
X123247336Y-125450000D03*
X135147336Y-125450000D03*
X135147336Y-135350000D03*
%TD*%
D43*
%TO.C,C18*%
X174562500Y-98100000D03*
X176637500Y-98100000D03*
%TD*%
D17*
%TO.C,H1*%
X113900000Y-75000000D03*
D18*
X113900000Y-75000000D03*
%TD*%
D14*
%TO.C,LV6*%
X141175000Y-90400000D03*
X139425000Y-90400000D03*
%TD*%
D22*
%TO.C,R24*%
X114312500Y-103300000D03*
X112487500Y-103300000D03*
%TD*%
D14*
%TO.C,LV5*%
X141175000Y-86800000D03*
X139425000Y-86800000D03*
%TD*%
D13*
%TO.C,R36*%
X155400000Y-95112500D03*
X155400000Y-93287500D03*
%TD*%
D20*
%TO.C,D7*%
X139150000Y-125325000D03*
X139150000Y-127075000D03*
%TD*%
D44*
%TO.C,U2*%
X140990000Y-118460000D03*
D45*
X140990000Y-117810000D03*
D46*
X140990000Y-117160000D03*
X140990000Y-116510000D03*
X138120000Y-116510000D03*
X138120000Y-117160000D03*
X138120000Y-117810000D03*
X138120000Y-118460000D03*
D47*
X139555000Y-117485000D03*
%TD*%
D48*
%TO.C,Q1*%
X118542842Y-79108579D03*
X120442842Y-79108579D03*
X119492842Y-77233579D03*
%TD*%
D49*
%TO.C,J4*%
X144530000Y-72990000D03*
D50*
X147030000Y-72990000D03*
X149530000Y-72990000D03*
X152030000Y-72990000D03*
%TD*%
D21*
%TO.C,C21*%
X143245000Y-107637500D03*
X143245000Y-105912500D03*
%TD*%
D24*
%TO.C,LV3*%
X115525000Y-129200000D03*
X117275000Y-129200000D03*
%TD*%
D14*
%TO.C,LV16*%
X141175000Y-80900000D03*
X139425000Y-80900000D03*
%TD*%
%TO.C,LV19*%
X151250000Y-87600000D03*
X149500000Y-87600000D03*
%TD*%
%TO.C,LV18*%
X151250000Y-89400000D03*
X149500000Y-89400000D03*
%TD*%
D51*
%TO.C,J7*%
X182000000Y-73000000D03*
D50*
X184500000Y-73000000D03*
%TD*%
D22*
%TO.C,R38*%
X151612500Y-116500000D03*
X149787500Y-116500000D03*
%TD*%
D31*
%TO.C,Q6*%
X176525000Y-91300000D03*
X176525000Y-90030000D03*
X176525000Y-88760000D03*
X176525000Y-87490000D03*
D52*
X170765000Y-87490000D03*
X170765000Y-91300000D03*
D53*
X172365000Y-89395000D03*
D54*
X174180000Y-89395000D03*
D55*
X174845000Y-89395000D03*
%TD*%
D29*
%TO.C,R33*%
X162887500Y-102500000D03*
X164712500Y-102500000D03*
%TD*%
%TO.C,R47*%
X162887500Y-108900000D03*
X164712500Y-108900000D03*
%TD*%
%TO.C,R10*%
X145087500Y-122400000D03*
X146912500Y-122400000D03*
%TD*%
D37*
%TO.C,C20*%
X182737500Y-80600000D03*
X184462500Y-80600000D03*
%TD*%
D15*
%TO.C,R49*%
X151100000Y-136687500D03*
X151100000Y-138512500D03*
%TD*%
D22*
%TO.C,R31*%
X171812500Y-75150000D03*
X169987500Y-75150000D03*
%TD*%
D56*
%TO.C,C3*%
X126400000Y-114337500D03*
X126400000Y-112262500D03*
%TD*%
D15*
%TO.C,R9*%
X140790000Y-125277500D03*
X140790000Y-127102500D03*
%TD*%
D29*
%TO.C,R42*%
X129387500Y-76900000D03*
X131212500Y-76900000D03*
%TD*%
D57*
%TO.C,IC1*%
X176330000Y-84350000D03*
X176330000Y-83700000D03*
X176330000Y-83050000D03*
X176330000Y-82400000D03*
X173830000Y-82400000D03*
X173830000Y-83050000D03*
X173830000Y-83700000D03*
X173830000Y-84350000D03*
%TD*%
D37*
%TO.C,C14*%
X173737500Y-79000000D03*
X175462500Y-79000000D03*
%TD*%
D13*
%TO.C,R46*%
X158600000Y-95112500D03*
X158600000Y-93287500D03*
%TD*%
D48*
%TO.C,Q4*%
X122100000Y-104497500D03*
X124000000Y-104497500D03*
X123050000Y-102622500D03*
%TD*%
D37*
%TO.C,C19*%
X174507500Y-94150000D03*
X176232500Y-94150000D03*
%TD*%
D15*
%TO.C,R2*%
X142250000Y-111587500D03*
X142250000Y-113412500D03*
%TD*%
D14*
%TO.C,LV21*%
X151250000Y-85800000D03*
X149500000Y-85800000D03*
%TD*%
D37*
%TO.C,C11*%
X112522500Y-79585000D03*
X114247500Y-79585000D03*
%TD*%
D22*
%TO.C,R35*%
X151612500Y-120100000D03*
X149787500Y-120100000D03*
%TD*%
D29*
%TO.C,R34*%
X162887500Y-104100000D03*
X164712500Y-104100000D03*
%TD*%
%TO.C,R26*%
X112487500Y-100100000D03*
X114312500Y-100100000D03*
%TD*%
D20*
%TO.C,D8*%
X142385000Y-125325000D03*
X142385000Y-127075000D03*
%TD*%
D22*
%TO.C,R30*%
X171912500Y-83700000D03*
X170087500Y-83700000D03*
%TD*%
D37*
%TO.C,C16*%
X173737500Y-80600000D03*
X175462500Y-80600000D03*
%TD*%
D29*
%TO.C,R15*%
X112487500Y-81200000D03*
X114312500Y-81200000D03*
%TD*%
D58*
%TO.C,C9*%
X143100000Y-132037500D03*
X143100000Y-133762500D03*
%TD*%
D37*
%TO.C,C13*%
X112537500Y-104900000D03*
X114262500Y-104900000D03*
%TD*%
D29*
%TO.C,R3*%
X119187500Y-116500000D03*
X121012500Y-116500000D03*
%TD*%
D15*
%TO.C,R14*%
X126600000Y-85537500D03*
X126600000Y-87362500D03*
%TD*%
D59*
%TO.C,LV22*%
X149400000Y-138475000D03*
X149400000Y-136725000D03*
%TD*%
D22*
%TO.C,R19*%
X120712500Y-127500000D03*
X118887500Y-127500000D03*
%TD*%
D13*
%TO.C,R25*%
X126230000Y-98442500D03*
X126230000Y-96617500D03*
%TD*%
D29*
%TO.C,R40*%
X112487500Y-106500000D03*
X114312500Y-106500000D03*
%TD*%
D60*
%TO.C,D3*%
X122450000Y-114400000D03*
X119150000Y-114400000D03*
%TD*%
D61*
%TO.C,C8*%
X138800000Y-132762500D03*
X138800000Y-134837500D03*
%TD*%
D62*
%TO.C,Q2*%
X124725000Y-80287500D03*
X122825000Y-80287500D03*
X123775000Y-82162500D03*
%TD*%
D63*
%TO.C,D2*%
X116600000Y-82000000D03*
X119400000Y-82000000D03*
%TD*%
D29*
%TO.C,R13*%
X129387500Y-80100000D03*
X131212500Y-80100000D03*
%TD*%
D13*
%TO.C,R1*%
X140650000Y-113412500D03*
X140650000Y-111587500D03*
%TD*%
D21*
%TO.C,C2*%
X137900000Y-114662500D03*
X137900000Y-112937500D03*
%TD*%
D22*
%TO.C,R29*%
X181012500Y-80600000D03*
X179187500Y-80600000D03*
%TD*%
D15*
%TO.C,R6*%
X133800000Y-116587500D03*
X133800000Y-118412500D03*
%TD*%
D58*
%TO.C,C7*%
X136900000Y-132837500D03*
X136900000Y-134562500D03*
%TD*%
D64*
%TO.C,D4*%
X121800000Y-118150000D03*
D65*
X120100000Y-118150000D03*
X120100000Y-120150000D03*
X122000000Y-120150000D03*
%TD*%
D24*
%TO.C,LV2*%
X115525000Y-127500000D03*
X117275000Y-127500000D03*
%TD*%
D56*
%TO.C,C4*%
X136000000Y-114637500D03*
X136000000Y-112562500D03*
%TD*%
D66*
%TO.C,J5*%
X158250000Y-73000000D03*
D50*
X160750000Y-73000000D03*
X163250000Y-73000000D03*
%TD*%
D22*
%TO.C,R22*%
X114312500Y-109700000D03*
X112487500Y-109700000D03*
%TD*%
D36*
%TO.C,D9*%
X124100000Y-88250000D03*
X124100000Y-84050000D03*
%TD*%
D37*
%TO.C,C12*%
X112537500Y-108100000D03*
X114262500Y-108100000D03*
%TD*%
D67*
%TO.C,Q3*%
X117860631Y-106161367D03*
X117860631Y-108061367D03*
X119735631Y-107111367D03*
%TD*%
D29*
%TO.C,R4*%
X119187500Y-121700000D03*
X121012500Y-121700000D03*
%TD*%
D58*
%TO.C,C1*%
X138200000Y-120237500D03*
X138200000Y-121962500D03*
%TD*%
D21*
%TO.C,C10*%
X123100000Y-78262500D03*
X123100000Y-76537500D03*
%TD*%
D20*
%TO.C,Con1*%
X126600000Y-82125000D03*
X126600000Y-83875000D03*
%TD*%
D22*
%TO.C,R27*%
X114312500Y-101700000D03*
X112487500Y-101700000D03*
%TD*%
D29*
%TO.C,R18*%
X112487500Y-82800000D03*
X114312500Y-82800000D03*
%TD*%
%TO.C,R41*%
X122187500Y-106500000D03*
X124012500Y-106500000D03*
%TD*%
%TO.C,R43*%
X129387500Y-78500000D03*
X131212500Y-78500000D03*
%TD*%
D15*
%TO.C,R5*%
X128600000Y-116587500D03*
X128600000Y-118412500D03*
%TD*%
D63*
%TO.C,D1*%
X116050000Y-103250000D03*
X118850000Y-103250000D03*
%TD*%
D68*
%TO.C,Q5*%
X180125000Y-88790000D03*
X181395000Y-88790000D03*
X182665000Y-88790000D03*
X183935000Y-88790000D03*
D69*
X183935000Y-83030000D03*
X180125000Y-83030000D03*
D70*
X182030000Y-84630000D03*
D71*
X182030000Y-86445000D03*
D72*
X182030000Y-87110000D03*
%TD*%
D43*
%TO.C,C17*%
X174562500Y-96000000D03*
X176637500Y-96000000D03*
%TD*%
D22*
%TO.C,R21*%
X120712500Y-130900000D03*
X118887500Y-130900000D03*
%TD*%
D59*
%TO.C,Con2*%
X126220000Y-102335000D03*
X126220000Y-100585000D03*
%TD*%
D22*
%TO.C,R16*%
X120712500Y-125800000D03*
X118887500Y-125800000D03*
%TD*%
D73*
%TO.C,J3*%
X150100000Y-109080000D03*
D35*
X150100000Y-106540000D03*
X150100000Y-104000000D03*
X150100000Y-101460000D03*
%TD*%
D24*
%TO.C,LV1*%
X115525000Y-125800000D03*
X117275000Y-125800000D03*
%TD*%
D15*
%TO.C,R11*%
X141500000Y-131987500D03*
X141500000Y-133812500D03*
%TD*%
D56*
%TO.C,C5*%
X124300000Y-114337500D03*
X124300000Y-112262500D03*
%TD*%
D14*
%TO.C,LV10*%
X147975000Y-118300000D03*
X146225000Y-118300000D03*
%TD*%
D17*
%TO.C,H3*%
X114250000Y-136800000D03*
D18*
X114250000Y-136800000D03*
%TD*%
D14*
%TO.C,LV9*%
X151250000Y-91200000D03*
X149500000Y-91200000D03*
%TD*%
D29*
%TO.C,R32*%
X162887500Y-105700000D03*
X164712500Y-105700000D03*
%TD*%
D23*
%TO.C,LVGND_TP1*%
X189650000Y-80400000D03*
%TD*%
D58*
%TO.C,C6*%
X135370000Y-118277500D03*
X135370000Y-120002500D03*
%TD*%
D15*
%TO.C,R12*%
X124700000Y-76487500D03*
X124700000Y-78312500D03*
%TD*%
D17*
%TO.C,H2*%
X190850000Y-75000000D03*
D18*
X190850000Y-75000000D03*
%TD*%
M02*
