%TF.GenerationSoftware,KiCad,Pcbnew,9.0.0*%
%TF.CreationDate,2025-08-25T23:02:16-05:00*%
%TF.ProjectId,VehicleControlUnit,56656869-636c-4654-936f-6e74726f6c55,rev?*%
%TF.SameCoordinates,Original*%
%TF.FileFunction,Soldermask,Bot*%
%TF.FilePolarity,Negative*%
%FSLAX46Y46*%
G04 Gerber Fmt 4.6, Leading zero omitted, Abs format (unit mm)*
G04 Created by KiCad (PCBNEW 9.0.0) date 2025-08-25 23:02:16*
%MOMM*%
%LPD*%
G01*
G04 APERTURE LIST*
G04 Aperture macros list*
%AMRoundRect*
0 Rectangle with rounded corners*
0 $1 Rounding radius*
0 $2 $3 $4 $5 $6 $7 $8 $9 X,Y pos of 4 corners*
0 Add a 4 corners polygon primitive as box body*
4,1,4,$2,$3,$4,$5,$6,$7,$8,$9,$2,$3,0*
0 Add four circle primitives for the rounded corners*
1,1,$1+$1,$2,$3*
1,1,$1+$1,$4,$5*
1,1,$1+$1,$6,$7*
1,1,$1+$1,$8,$9*
0 Add four rect primitives between the rounded corners*
20,1,$1+$1,$2,$3,$4,$5,0*
20,1,$1+$1,$4,$5,$6,$7,0*
20,1,$1+$1,$6,$7,$8,$9,0*
20,1,$1+$1,$8,$9,$2,$3,0*%
%AMFreePoly0*
4,1,22,0.945671,0.830970,1.026777,0.776777,1.080970,0.695671,1.100000,0.600000,1.100000,-0.600000,1.080970,-0.695671,1.026777,-0.776777,0.945671,-0.830970,0.850000,-0.850000,-0.450000,-0.850000,-0.545671,-0.830970,-0.626777,-0.776777,-1.026777,-0.376777,-1.080970,-0.295671,-1.100000,-0.200000,-1.100000,0.600000,-1.080970,0.695671,-1.026777,0.776777,-0.945671,0.830970,-0.850000,0.850000,
0.850000,0.850000,0.945671,0.830970,0.945671,0.830970,$1*%
G04 Aperture macros list end*
%ADD10C,1.300000*%
%ADD11RoundRect,0.250000X0.600000X-0.850000X0.600000X0.850000X-0.600000X0.850000X-0.600000X-0.850000X0*%
%ADD12O,1.700000X2.200000*%
%ADD13RoundRect,0.250000X0.850000X0.600000X-0.850000X0.600000X-0.850000X-0.600000X0.850000X-0.600000X0*%
%ADD14O,2.200000X1.700000*%
%ADD15C,0.650000*%
%ADD16O,2.100000X1.000000*%
%ADD17O,1.800000X1.000000*%
%ADD18FreePoly0,0.000000*%
%ADD19C,1.524000*%
%ADD20FreePoly0,90.000000*%
%ADD21C,3.200000*%
%ADD22C,3.000000*%
%ADD23RoundRect,0.250000X-0.850000X-0.600000X0.850000X-0.600000X0.850000X0.600000X-0.850000X0.600000X0*%
%ADD24R,1.700000X1.700000*%
%ADD25O,1.700000X1.700000*%
G04 APERTURE END LIST*
D10*
%TO.C,J14*%
X177750000Y-65190000D03*
D11*
X174000000Y-63850000D03*
D12*
X176500000Y-63850000D03*
X179000000Y-63850000D03*
X181500000Y-63850000D03*
%TD*%
D10*
%TO.C,J7*%
X113607280Y-75250000D03*
D13*
X112267280Y-79000000D03*
D14*
X112267280Y-76500000D03*
X112267280Y-74000000D03*
X112267280Y-71500000D03*
%TD*%
D15*
%TO.C,J9*%
X115015000Y-122360000D03*
X115015000Y-128140000D03*
D16*
X115515000Y-120930000D03*
D17*
X111335000Y-120930000D03*
D16*
X115515000Y-129570000D03*
D17*
X111335000Y-129570000D03*
%TD*%
D10*
%TO.C,J16*%
X190860000Y-79450000D03*
D18*
X192200000Y-78200000D03*
D14*
X192200000Y-80700000D03*
%TD*%
D19*
%TO.C,J13*%
X145336700Y-126353400D03*
X142796700Y-126353400D03*
X145336700Y-128893400D03*
X142796700Y-128893400D03*
X145336700Y-131433400D03*
X142796700Y-131433400D03*
X145336700Y-133973400D03*
X142796700Y-133973400D03*
X145336700Y-136513400D03*
X142796700Y-136513400D03*
%TD*%
D10*
%TO.C,J2*%
X139625000Y-65185000D03*
D11*
X135875000Y-63845000D03*
D12*
X138375000Y-63845000D03*
X140875000Y-63845000D03*
X143375000Y-63845000D03*
%TD*%
D10*
%TO.C,J1*%
X153150000Y-65180000D03*
D20*
X151900000Y-63840000D03*
D12*
X154400000Y-63840000D03*
%TD*%
D21*
%TO.C,H1*%
X114250000Y-65000000D03*
%TD*%
D22*
%TO.C,J4*%
X156350000Y-136850000D03*
X190850000Y-136850000D03*
X156350000Y-87350000D03*
X190850000Y-87350000D03*
%TD*%
D10*
%TO.C,J8*%
X169410000Y-76100000D03*
D23*
X170750000Y-72350000D03*
D14*
X170750000Y-74850000D03*
X170750000Y-77350000D03*
X170750000Y-79850000D03*
%TD*%
D10*
%TO.C,J6*%
X113615000Y-89920000D03*
D13*
X112275000Y-93670000D03*
D14*
X112275000Y-91170000D03*
X112275000Y-88670000D03*
X112275000Y-86170000D03*
%TD*%
D19*
%TO.C,J5*%
X144750000Y-85250000D03*
X142210000Y-85250000D03*
X144750000Y-87790000D03*
X142210000Y-87790000D03*
X144750000Y-90330000D03*
X142210000Y-90330000D03*
X144750000Y-92870000D03*
X142210000Y-92870000D03*
X144750000Y-95410000D03*
X142210000Y-95410000D03*
%TD*%
D10*
%TO.C,J15*%
X190860000Y-72150000D03*
D18*
X192200000Y-70900000D03*
D14*
X192200000Y-73400000D03*
%TD*%
D10*
%TO.C,J3*%
X142190000Y-104090000D03*
D18*
X143530000Y-102840000D03*
D14*
X143530000Y-105340000D03*
%TD*%
D21*
%TO.C,H3*%
X114250000Y-136800000D03*
%TD*%
D24*
%TO.C,J10*%
X134800000Y-105275000D03*
D25*
X134800000Y-102735000D03*
X134800000Y-100195000D03*
X134800000Y-97655000D03*
%TD*%
D21*
%TO.C,H2*%
X190850000Y-65000000D03*
%TD*%
M02*
