M48
; DRILL file {KiCad 9.0.0} date 2025-08-25T23:02:16-0500
; FORMAT={-:-/ absolute / inch / decimal}
; #@! TF.CreationDate,2025-08-25T23:02:16-05:00
; #@! TF.GenerationSoftware,Kicad,Pcbnew,9.0.0
; #@! TF.FileFunction,Plated,1,2,PTH
FMAT,2
INCH
; #@! TA.AperFunction,Plated,PTH,ViaDrill
T1C0.0118
; #@! TA.AperFunction,Plated,PTH,ViaDrill
T2C0.0157
; #@! TA.AperFunction,Plated,PTH,ComponentDrill
T3C0.0236
; #@! TA.AperFunction,Plated,PTH,ComponentDrill
T4C0.0394
; #@! TA.AperFunction,Plated,PTH,ComponentDrill
T5C0.0400
; #@! TA.AperFunction,Plated,PTH,ComponentDrill
T6C0.0472
%
G90
G05
T1
X4.3386Y-5.1969
X4.3406Y-5.2717
X4.3406Y-5.3622
X4.3701Y-4.0551
X4.3701Y-4.2913
X4.3701Y-4.5276
X4.3701Y-4.8425
X4.372Y-4.1299
X4.372Y-4.2205
X4.372Y-4.3661
X4.372Y-4.4567
X4.372Y-4.6024
X4.372Y-4.6929
X4.372Y-4.9173
X4.372Y-5.0079
X4.4537Y-4.3825
X4.4961Y-5.2677
X4.5404Y-4.3845
X4.5605Y-4.6801
X4.5925Y-5.2067
X4.6112Y-5.2362
X4.6122Y-5.1752
X4.6309Y-4.3845
X4.6319Y-4.8366
X4.6319Y-5.0256
X4.6339Y-4.6791
X4.6407Y-4.6152
X4.6437Y-4.8701
X4.6457Y-4.9764
X4.6457Y-5.315
X4.6535Y-5.5276
X4.6673Y-4.9469
X4.6732Y-4.8583
X4.6949Y-4.9724
X4.696Y-3.2295
X4.6963Y-3.8071
X4.7008Y-4.8425
X4.7195Y-4.3845
X4.7244Y-4.9882
X4.7323Y-4.8346
X4.748Y-5.3307
X4.748Y-5.3622
X4.7628Y-3.8937
X4.7638Y-4.8524
X4.7657Y-5.0955
X4.7943Y-4.2844
X4.8425Y-4.7244
X4.8445Y-4.9449
X4.8465Y-4.8701
X4.876Y-4.8701
X4.8819Y-4.9449
X4.9075Y-4.8701
X4.9213Y-4.9764
X4.9232Y-5.0787
X4.9272Y-5.0098
X4.9272Y-5.0433
X4.937Y-4.8898
X4.9697Y-4.9295
X4.9921Y-4.3622
X4.9957Y-4.9551
X4.998Y-5.0787
X5.0008Y-4.9921
X5.0016Y-5.0339
X5.0394Y-4.987
X5.0457Y-4.9055
X5.0516Y-5.0941
X5.0748Y-5.0364
X5.1201Y-5.0846
X5.1417Y-5.1083
X5.1506Y-3.1526
X5.1575Y-5.0
X5.1673Y-4.5472
X5.1811Y-4.2677
X5.2205Y-5.2047
X5.2205Y-5.2362
X5.2205Y-5.3307
X5.2205Y-5.3622
X5.2248Y-3.2677
X5.2248Y-3.4173
X5.2254Y-4.0856
X5.2303Y-2.498
X5.2303Y-2.6122
X5.2362Y-5.2717
X5.2539Y-3.5925
X5.2554Y-3.408
X5.2559Y-3.6319
X5.2717Y-3.7165
X5.2736Y-3.5197
X5.2756Y-5.1575
X5.2913Y-4.562
X5.3061Y-4.752
X5.315Y-4.8425
X5.3189Y-5.376
X5.3228Y-5.5433
X5.3268Y-3.5925
X5.3346Y-3.3976
X5.3583Y-5.2717
X5.374Y-3.752
X5.4291Y-5.1476
X5.4331Y-4.7244
X5.4331Y-4.9213
X5.437Y-5.374
X5.4622Y-3.9028
X5.4774Y-3.4793
X5.4921Y-3.752
X5.5118Y-4.8031
X5.5118Y-4.9606
X5.5492Y-3.6063
X5.5555Y-4.4787
X5.5846Y-3.8248
X5.626Y-3.8346
X5.6791Y-3.939
X5.7224Y-4.3543
X5.726Y-4.2575
X5.763Y-4.3673
X5.7736Y-3.6161
X5.7776Y-4.0207
X5.7795Y-3.7047
X5.7874Y-4.9213
X5.7874Y-5.0787
X5.7874Y-5.2362
X5.7874Y-5.3937
X5.8209Y-4.1654
X5.8346Y-3.8701
X5.8661Y-2.9803
X5.8913Y-5.4642
X5.8976Y-4.2559
X5.9232Y-5.4705
X5.9291Y-3.7343
X5.9587Y-5.3366
X5.9685Y-4.2717
X5.9819Y-4.6378
X5.9828Y-4.0939
X5.9843Y-4.4094
X6.0079Y-4.128
X6.0079Y-4.1969
X6.0236Y-5.2362
X6.0384Y-3.9006
X6.0384Y-3.9636
X6.063Y-3.3071
X6.063Y-3.4252
X6.063Y-3.5433
X6.063Y-3.7008
X6.063Y-3.7795
X6.1024Y-3.8622
X6.1083Y-5.1791
X6.1398Y-4.1884
X6.1398Y-4.2199
X6.1457Y-4.6457
X6.1496Y-4.6142
X6.1496Y-4.8051
X6.1496Y-4.8366
X6.1614Y-3.8622
X6.1614Y-3.9173
X6.1614Y-4.0
X6.1732Y-4.8976
X6.1811Y-3.3071
X6.1811Y-3.5433
X6.1811Y-3.7795
X6.1811Y-4.7244
X6.1831Y-5.0945
X6.187Y-4.0309
X6.2106Y-4.6555
X6.2126Y-4.6197
X6.2165Y-4.185
X6.2205Y-3.8622
X6.2205Y-5.2362
X6.2323Y-2.5728
X6.2421Y-5.0374
X6.2598Y-3.7008
X6.2795Y-3.8622
X6.2992Y-3.3071
X6.2992Y-3.4252
X6.2992Y-3.5433
X6.2992Y-5.1575
X6.3189Y-4.1988
X6.3346Y-4.9567
X6.3425Y-4.124
X6.3425Y-4.1569
X6.3484Y-3.9173
X6.3484Y-3.9665
X6.3524Y-4.0768
X6.3701Y-4.2087
X6.378Y-4.5276
X6.378Y-4.8819
X6.378Y-5.0787
X6.4006Y-4.6713
X6.4173Y-3.0472
X6.4173Y-3.1614
X6.4173Y-3.2913
X6.4173Y-3.4252
X6.4173Y-3.5433
X6.4173Y-3.6614
X6.4173Y-3.7795
X6.437Y-3.8976
X6.437Y-3.9882
X6.4567Y-5.0
X6.4586Y-2.5984
X6.4764Y-4.1024
X6.4961Y-4.8031
X6.4961Y-4.8819
X6.5039Y-3.9094
X6.5325Y-3.9459
X6.5335Y-3.9843
X6.5354Y-4.3701
X6.5748Y-2.5984
X6.5748Y-2.7165
X6.5906Y-2.9331
X6.5906Y-3.0315
X6.5906Y-3.1417
X6.5906Y-3.2323
X6.5906Y-3.3268
X6.5906Y-3.4055
X6.5906Y-3.4843
X6.5906Y-3.5827
X6.5906Y-3.7402
X6.5906Y-3.8425
X6.6043Y-2.8307
X6.6732Y-3.3268
X6.6732Y-3.4055
X6.6732Y-3.5827
X6.6732Y-3.7402
X6.6929Y-2.5984
X6.6929Y-2.7165
X6.6929Y-4.2126
X6.7126Y-3.878
X6.811Y-2.7165
X6.8307Y-2.9961
X6.8307Y-3.1299
X6.8307Y-3.248
X6.8307Y-3.3661
X6.8307Y-3.4646
X6.8307Y-3.5827
X6.8504Y-3.7598
X6.8898Y-2.874
X6.9094Y-3.4252
X6.9094Y-3.5236
X6.9124Y-4.3819
X6.9291Y-2.5984
X6.9291Y-3.6811
X6.9685Y-2.7953
X6.9882Y-3.4252
X7.0Y-2.9961
X7.0079Y-3.6024
X7.0079Y-3.8976
X7.0472Y-2.7165
X7.0699Y-4.2244
X7.0866Y-3.4252
X7.0866Y-3.5236
X7.0984Y-2.9961
X7.126Y-2.6378
X7.1329Y-3.5305
X7.1486Y-4.1457
X7.1575Y-5.1024
X7.1654Y-3.7402
X7.185Y-3.4252
X7.1969Y-2.9961
X7.2244Y-3.5325
X7.2274Y-4.0669
X7.2441Y-3.622
X7.2638Y-3.1004
X7.2638Y-3.4252
X7.3061Y-3.9882
X7.31Y-3.5335
X7.3622Y-3.1102
X7.3622Y-3.622
X7.3888Y-3.9006
X7.4016Y-2.9803
X7.4705Y-3.1791
X7.4744Y-3.8091
X7.4803Y-3.5827
X7.5039Y-2.7146
X7.5591Y-3.2854
X7.5669Y-2.9685
X7.6772Y-2.685
X7.6772Y-2.7638
X7.6772Y-2.8425
X7.6772Y-2.9213
X7.6772Y-3.0
X7.6772Y-3.0787
X7.6772Y-3.1654
T2
X4.7874Y-5.2067
X4.7874Y-5.4567
X5.1024Y-5.2087
X5.1024Y-5.4587
X6.0768Y-3.0394
X6.0768Y-3.1171
X6.0768Y-3.1978
X6.0787Y-2.7343
X6.0787Y-2.9626
X6.1575Y-2.7343
X6.1575Y-2.8051
X6.1575Y-2.8839
X6.1575Y-2.9626
X6.1575Y-3.0404
X6.1575Y-3.1191
X6.1575Y-3.1978
X6.2362Y-3.1191
X6.2362Y-3.1978
X6.2598Y-2.7657
X6.2776Y-3.0315
X6.315Y-3.1191
X6.315Y-3.1978
T4
X5.3071Y-3.8447
X5.3071Y-3.9447
X5.3071Y-4.0447
X5.3071Y-4.1447
T5
X5.5988Y-3.3563
X5.5988Y-3.4563
X5.5988Y-3.5563
X5.5988Y-3.6563
X5.5988Y-3.7563
X5.6219Y-4.9745
X5.6219Y-5.0745
X5.6219Y-5.1745
X5.6219Y-5.2745
X5.6219Y-5.3745
X5.6988Y-3.3563
X5.6988Y-3.4563
X5.6988Y-3.5563
X5.6988Y-3.6563
X5.6988Y-3.7563
X5.7219Y-4.9745
X5.7219Y-5.0745
X5.7219Y-5.1745
X5.7219Y-5.2745
X5.7219Y-5.3745
T6
X4.42Y-2.815
X4.42Y-2.9134
X4.42Y-3.0118
X4.42Y-3.1102
X4.4203Y-3.3925
X4.4203Y-3.4909
X4.4203Y-3.5894
X4.4203Y-3.6878
X5.3494Y-2.5136
X5.4478Y-2.5136
X5.5463Y-2.5136
X5.6447Y-2.5136
X5.6508Y-4.0488
X5.6508Y-4.1472
X5.9803Y-2.5134
X6.0787Y-2.5134
X6.7224Y-2.8484
X6.7224Y-2.9469
X6.7224Y-3.0453
X6.7224Y-3.1437
X6.8504Y-2.5138
X6.9488Y-2.5138
X7.0472Y-2.5138
X7.1457Y-2.5138
X7.5669Y-2.7913
X7.5669Y-2.8898
X7.5669Y-3.0787
X7.5669Y-3.1772
T3
G00X4.399Y-4.761
M15
G01X4.3675Y-4.761
M16
G05
G00X4.399Y-5.1012
M15
G01X4.3675Y-5.1012
M16
G05
G00X4.5695Y-4.761
M15
G01X4.5262Y-4.761
M16
G05
G00X4.5695Y-5.1012
M15
G01X4.5262Y-5.1012
M16
G05
M30
